<?xml version="1.0" encoding="utf-8"?>
<svg viewBox="51.79792404174805 121.47679138183594 408.0003662109375 271.52325439453125" width="408.0003662109375" height="271.52325439453125" xmlns="http://www.w3.org/2000/svg" xmlns:bx="https://boxy-svg.com">
  <g transform="matrix(1, 0, 0, 1, 6.798241138458259, 41.47679519653321)">
    <rect x="98" y="208.015" width="100" height="20" transform="matrix(0.707107, 0.707107, -0.707108, 0.707107, 251.934992, 33.61409)"/>
    <rect x="98" y="208.015" width="100" height="20" transform="matrix(0.707107, -0.707107, 0.707106, 0.707107, 33.614238, 242.91819)"/>
    <path d="M 231 321 H 264 V 335 H 231 V 321 Z"/>
    <path d="M 160 139 L 180 159.464 L 180 264 L 160 264 L 160 139 Z"/>
    <path d="M 315 161.51 L 335 139 L 335 264 L 315 264 L 315 161.51 Z"/>
    <rect x="312.766" y="187.023" width="140" height="20" transform="matrix(0.906308, -0.422618, 0.422617, 0.906308, -45.121209, 159.26931)"/>
    <rect x="312.766" y="187.023" width="140" height="20" transform="matrix(0.906307, 0.422619, -0.422617, 0.906308, -150.970871, -164.258425)"/>
    <path d="M 45 80 L 65 101.828 L 65 155 L 45 155 L 45 80 Z"/>
    <path d="M 433 100.464 L 453 80 L 453 155 L 433 155 L 433 100.464 Z"/>
    <path d="M 100 111 L 120 134.192 L 120 181 L 100 181 L 100 111 Z"/>
    <path d="M 375 135.557 L 395 111 L 395 181 L 375 181 L 375 135.557 Z"/>
  </g>
  <path style="stroke: rgb(0, 0, 0);" d="M 235 373.206 L 254.297 393 L 273.8 373 L 235 373.206 Z" transform="matrix(1, 0, 0, 1, 0, 0)" bx:origin="1.724 -2.574"/>
</svg>